<svg height="512pt" viewBox="0 -44 512.00077 512" width="512pt" xmlns="http://www.w3.org/2000/svg"><path d="m104.203125 190.914062s24.976563-134.386718 143.632813-188.109374c20.660156-9.351563 44.140624 5.828124 44.015624 28.507812-.203124 38.277344-9.738281 95.171875-56.398437 139.285156-3.539063.839844-131.25 20.316406-131.25 20.316406zm0 0" fill="#abebf4"/><path d="m156.644531 77.058594c-41.558593 55.273437-52.441406 113.855468-52.441406 113.855468s127.710937-19.480468 131.253906-20.316406c45.945313-43.4375 55.894531-99.257812 56.382813-137.5-55.027344 9.570313-102.492188 28.300782-135.195313 43.960938zm0 0" fill="#8ed7e8"/><path d="m172.910156 173.042969s55.25-125.023438 183.085938-149.980469c22.257812-4.347656 41.613281 15.835938 36.273437 37.875-9.011719 37.203125-31.390625 90.371094-86.957031 122.554688-3.636719 0-132.402344-10.449219-132.402344-10.449219zm0 0" fill="#ccf8ff"/><path d="m214.699219 109.523438c-28.539063 33.535156-41.789063 63.519531-41.789063 63.519531s128.765625 10.449219 132.402344 10.449219c37.570312-21.757813 59.964844-53.109376 73.316406-82.632813-73.320312-19.042969-126.882812-8.847656-163.929687 8.664063zm0 0" fill="#abebf4"/><path d="m437 221.609375v115.96875l60.460938-33.355469c19.386718-10.695312 19.386718-38.5625 0-49.261718zm0 0" fill="#898890"/><path d="m459.625 279.59375c0 79.273438-64.261719 143.539062-143.539062 143.539062-79.273438 0-143.539063-64.265624-143.539063-143.539062 0-79.277344 64.265625-143.542969 143.539063-143.542969 79.277343 0 143.539062 64.265625 143.539062 143.542969zm0 0" fill="#ffde55"/><path d="m422.359375 376.082031c-17.335937.445313-32.828125-1.855469-46.261719-5.535156-32.832031-8.988281-54.546875-39.824219-52.492187-73.804687 4.390625-72.660157-39.207031-129.742188-58.601563-151.339844-54.054687 20.589844-92.457031 72.90625-92.457031 134.1875 0 79.277344 64.265625 143.542968 143.539063 143.542968 42.125 0 80.015624-18.148437 106.273437-47.050781zm0 0" fill="#ffcd00"/><path d="m363.511719 279.589844c0-53.085938-18.453125-103.339844-52.28125-143.457032-77.03125 2.554688-138.683594 65.808594-138.683594 143.457032 0 77.652344 61.65625 140.90625 138.683594 143.460937 33.832031-40.117187 52.28125-90.371093 52.28125-143.460937zm0 0" fill="#898890"/><path d="m323.605469 296.742188c4.390625-72.652344-39.203125-129.738282-58.601563-151.339844-54.058594 20.585937-92.457031 72.902344-92.457031 134.191406 0 77.652344 61.65625 140.902344 138.683594 143.457031 16.738281-19.84375 29.707031-42.164062 38.542969-66.085937-17.4375-14.292969-27.605469-36.496094-26.167969-60.222656zm0 0" fill="#6e6d75"/><path d="m65.550781 74.996094 46.046875 120.796875-28.875 11.007812-46.050781-120.796875zm0 0" fill="#ffde55"/><path d="m83.066406 80.496094c0 17.652344-14.308594 31.960937-31.957031 31.960937-17.652344 0-31.960937-14.308593-31.960937-31.960937 0-17.648438 14.308593-31.957032 31.960937-31.957032 17.648437 0 31.957031 14.308594 31.957031 31.957032zm0 0" fill="#898890"/><path d="m244.425781 85.992188-46.046875 120.792968-28.878906-11.007812 46.050781-120.792969zm0 0" fill="#ffde55"/><path d="m261.949219 80.496094c0 17.652344-14.308594 31.960937-31.960938 31.960937-17.648437 0-31.957031-14.308593-31.957031-31.960937 0-17.648438 14.308594-31.957032 31.957031-31.957032 17.652344 0 31.960938 14.308594 31.960938 31.957032zm0 0" fill="#898890"/><path d="m281.097656 279.59375c0 77.621094-62.925781 140.546875-140.550781 140.546875-77.621094 0-140.546875-62.925781-140.546875-140.546875 0-77.625 62.925781-140.550781 140.546875-140.550781 77.625 0 140.550781 62.925781 140.550781 140.550781zm0 0" fill="#ffeb99"/><g fill="#57565c"><path d="m223.816406 295.953125c-4.269531 0-7.726562-3.460937-7.726562-7.726563v-12.828124c0-4.265626 3.457031-7.726563 7.726562-7.726563 4.269532 0 7.726563 3.460937 7.726563 7.726563v12.828124c0 4.265626-3.460938 7.726563-7.726563 7.726563zm0 0"/><path d="m57.632812 295.953125c-4.265624 0-7.726562-3.460937-7.726562-7.726563v-12.828124c0-4.265626 3.460938-7.726563 7.726562-7.726563 4.269532 0 7.726563 3.460937 7.726563 7.726563v12.828124c0 4.265626-3.457031 7.726563-7.726563 7.726563zm0 0"/><path d="m140.726562 304.042969c-10 0-20-3.238281-28.347656-9.710938-3.371094-2.613281-3.984375-7.46875-1.367187-10.839843 2.613281-3.371094 7.46875-3.984376 10.839843-1.371094 11.113282 8.621094 26.632813 8.621094 37.746094 0 3.371094-2.613282 8.226563-2 10.839844 1.371094 2.617188 3.371093 2.003906 8.226562-1.371094 10.839843-8.339844 6.472657-18.339844 9.710938-28.339844 9.710938zm0 0"/></g></svg>